<svg width="500" height="400" viewBox="0 0 500 400" fill="none" xmlns="http://www.w3.org/2000/svg">
<path d="M137 5L141 8.5L137 12" stroke="white" stroke-width="0.8" stroke-linecap="square"/>
<rect y="20" width="60" height="24" rx="12" fill="#D6DFE4"/>
<path d="M45.101 26.988V37.848H43.541V29.16H42.185V27.996C43.001 27.996 43.613 27.588 43.613 26.988H45.101Z" fill="#317669"/>
<path d="M33.5473 33.816H32.0473V26.916H33.5473V29.448H34.7953V26.916H36.3073V33.816H34.7953V30.876H33.5473V33.816ZM31.1113 28.428H25.8913V27.144H31.1113V28.428ZM31.4713 33.084L25.8913 33.468V29.208H31.0513V30.468H27.4273V32.028L31.4713 31.764V33.084ZM34.6153 35.64H26.2753V34.26H36.3073V38.064H34.6153V35.64Z" fill="#317669"/>
<path d="M17.9113 29.76H12.5233V28.38H14.4793V26.772H15.9913V28.38H17.9113V29.76ZM19.3393 34.896H18.1153V33.42H19.3393V31.284H18.1153V29.808H19.3393V26.916H20.7913V37.944H19.3393V34.896ZM23.1073 37.944H21.6313V26.916H23.1073V37.944ZM12.6913 35.34V32.712C12.6913 31.308 13.8073 30.384 15.2353 30.384C16.6633 30.384 17.7793 31.308 17.7793 32.712V35.34C17.7793 36.744 16.6633 37.68 15.2353 37.68C13.8073 37.68 12.6913 36.744 12.6913 35.34ZM15.2353 36.372C15.8233 36.372 16.3153 35.988 16.3153 35.316V32.748C16.3153 32.076 15.8233 31.68 15.2353 31.68C14.6473 31.68 14.1673 32.076 14.1673 32.748V35.316C14.1673 35.988 14.6473 36.372 15.2353 36.372Z" fill="#317669"/>
<circle cx="78" cy="28" r="7.3" stroke="#F85353" stroke-width="1.4"/>
<path fill-rule="evenodd" clip-rule="evenodd" d="M77.7998 24.1001C77.5237 24.1001 77.2998 24.324 77.2998 24.6001V28.6001C77.2998 28.8762 77.5237 29.1001 77.7998 29.1001H78.1998C78.4759 29.1001 78.6998 28.8762 78.6998 28.6001V24.6001C78.6998 24.324 78.4759 24.1001 78.1998 24.1001H77.7998ZM77.7998 30.1001C77.5237 30.1001 77.2998 30.324 77.2998 30.6001V31.4001C77.2998 31.6762 77.5237 31.9001 77.7998 31.9001H78.1998C78.4759 31.9001 78.6998 31.6762 78.6998 31.4001V30.6001C78.6998 30.324 78.4759 30.1001 78.1998 30.1001H77.7998Z" fill="#F85353"/>
<rect x="90.5" y="20.5" width="17" height="17" fill="white" stroke="#DDDDDD"/>
<rect y="90" width="60" height="24" rx="12" fill="#D6DFE4"/>
<path d="M45.3208 99.784V99.232C45.3208 98.512 44.8528 98.02 44.0128 98.02C43.1728 98.02 42.7408 98.512 42.7408 99.232V100.024H41.2048V99.232C41.2048 97.648 42.3568 96.76 44.0128 96.76C45.6688 96.76 46.8808 97.648 46.8808 99.232V99.784C46.8808 101.164 46.2088 101.836 44.7208 103.288C43.2808 104.692 42.7288 105.136 42.7288 105.904V106.552H46.9408V107.812H41.1328V105.904C41.1328 104.908 41.5048 104.224 43.4368 102.496C44.9128 101.188 45.3208 100.66 45.3208 99.784Z" fill="#317669"/>
<path d="M32.3872 103.816H30.8872V96.916H32.3872V99.448H33.6352V96.916H35.1472V103.816H33.6352V100.876H32.3872V103.816ZM29.9512 98.428H24.7312V97.144H29.9512V98.428ZM30.3112 103.084L24.7312 103.468V99.208H29.8912V100.468H26.2672V102.028L30.3112 101.764V103.084ZM33.4552 105.64H25.1152V104.26H35.1472V108.064H33.4552V105.64Z" fill="#317669"/>
<path d="M16.7512 99.76H11.3632V98.38H13.3192V96.772H14.8312V98.38H16.7512V99.76ZM18.1792 104.896H16.9552V103.42H18.1792V101.284H16.9552V99.808H18.1792V96.916H19.6312V107.944H18.1792V104.896ZM21.9472 107.944H20.4712V96.916H21.9472V107.944ZM11.5312 105.34V102.712C11.5312 101.308 12.6472 100.384 14.0752 100.384C15.5032 100.384 16.6192 101.308 16.6192 102.712V105.34C16.6192 106.744 15.5032 107.68 14.0752 107.68C12.6472 107.68 11.5312 106.744 11.5312 105.34ZM14.0752 106.372C14.6632 106.372 15.1552 105.988 15.1552 105.316V102.748C15.1552 102.076 14.6632 101.68 14.0752 101.68C13.4872 101.68 13.0072 102.076 13.0072 102.748V105.316C13.0072 105.988 13.4872 106.372 14.0752 106.372Z" fill="#317669"/>
<path d="M428 5L433.4 11L428 17" stroke="#317669" stroke-width="2.4"/>
<path d="M259.908 87.2901H257.928V85.3101H259.908V87.2901Z" fill="#D6DFE4"/>
<path d="M255.138 87.785H253.038V74H255.138V79.385H257.358V81.29H255.138V87.785ZM251.733 86.51L243.378 87.23V74.555H251.058V76.34H245.478V85.22L251.733 84.68V86.51Z" fill="#D6DFE4"/>
<path d="M240.933 87.785H238.803V74H240.933V87.785ZM237.258 86.51L228.498 87.23V74.48H230.643V85.145L237.258 84.605V86.51Z" fill="#D6DFE4"/>
<path d="M213.363 78.6649V77.0299C216.273 76.9849 218.553 76.0099 218.553 74.4499V73.9099H220.683V74.4499C220.683 76.0099 222.978 76.9849 225.873 77.0299V78.6649C222.618 78.6199 220.398 77.6749 219.618 76.4749C218.808 77.6749 216.588 78.6199 213.363 78.6649ZM226.458 81.3199H212.778V79.6249H226.458V81.3199ZM223.593 87.3949L213.573 87.7849V82.0999H215.643V83.2249H223.593V82.0999H225.663V87.7849H223.593V87.3949ZM215.643 84.8149V86.0899L223.593 85.8199V84.8149H215.643Z" fill="#D6DFE4"/>
<path d="M202.278 81.1701C200.028 81.1701 198.198 80.0901 198.198 77.9901V77.1801C198.198 75.0801 200.028 73.9851 202.278 73.9851C204.528 73.9851 206.358 75.0801 206.358 77.1801V77.9901C206.358 80.0901 204.528 81.1701 202.278 81.1701ZM211.068 81.5151H208.938V74.0001H211.068V81.5151ZM202.293 79.5801C203.418 79.5801 204.288 79.0551 204.288 78.0951V77.0901C204.288 76.1301 203.418 75.5751 202.293 75.5751C201.138 75.5751 200.283 76.1301 200.283 77.0901V78.0951C200.283 79.0551 201.138 79.5801 202.293 79.5801ZM205.023 88.0101C203.538 87.6501 202.413 86.7801 201.948 85.7901C201.438 86.8401 200.118 87.6501 198.318 87.7851V86.0301C200.028 85.7901 200.928 84.6351 200.928 83.3451V82.3401H202.908V83.3451C202.908 84.6651 203.898 85.8051 205.023 86.1951C206.238 85.8051 207.198 84.6201 207.213 83.2851V82.1901H209.178V83.2551C209.178 84.5601 210.003 85.7601 211.803 86.0001V87.7851C210.078 87.6501 208.758 86.8401 208.218 85.8051C207.723 86.7951 206.553 87.6651 205.023 88.0101Z" fill="#D6DFE4"/>
<path d="M178.821 80.4201V78.6201C181.851 78.5601 184.056 76.5951 184.056 74.8551V74.2251H186.186V74.8551C186.186 76.5951 188.406 78.5601 191.421 78.6201V80.4201C188.316 80.3751 185.991 78.9501 185.121 77.3451C184.221 78.9501 181.941 80.3751 178.821 80.4201ZM186.186 87.9351H184.056V83.6451H178.281V81.8151H191.961V83.6451H186.186V87.9351Z" fill="#D6DFE4"/>
<path d="M172.014 80.99H169.884V74H172.014V80.99ZM158.994 80.795V78.965C160.974 78.44 162.399 77.075 162.399 75.185V74.135H164.514V75.185C164.514 77.075 165.939 78.44 167.919 78.965V80.795C165.864 80.36 164.139 79.31 163.449 77.855C162.774 79.31 161.034 80.36 158.994 80.795ZM172.224 87.785H159.954V83.915H169.884V83.015H159.954V81.56H172.014V85.325H162.084V86.285H172.224V87.785Z" fill="#D6DFE4"/>
<path d="M152.244 77.5551H143.994V75.7701H147.069V73.8201H149.169V75.7701H152.244V77.5551ZM156.504 87.7851H154.404V74.0001H156.504V79.4451H158.364V81.3501H156.504V87.7851ZM148.119 87.4551C145.914 87.4551 144.204 86.1501 144.204 84.0051V81.8001C144.204 79.6701 145.914 78.3651 148.119 78.3651C150.324 78.3651 152.034 79.6701 152.034 81.8001V84.0051C152.034 86.1501 150.324 87.4551 148.119 87.4551ZM148.119 85.7601C149.169 85.7601 150.039 85.1151 150.039 84.0351V81.8001C150.039 80.7201 149.169 80.0751 148.119 80.0751C147.084 80.0751 146.214 80.7201 146.214 81.8001V84.0351C146.214 85.1151 147.084 85.7601 148.119 85.7601Z" fill="#D6DFE4"/>
<path d="M139.389 79.0099V80.2999H142.464V81.9649H128.784V80.2999H131.904V79.0099C130.509 78.9799 129.429 77.9299 129.429 76.5349C129.429 75.1249 130.539 74.0449 131.949 74.0449H139.299C140.679 74.0449 141.819 75.1249 141.819 76.5349C141.819 77.9149 140.724 78.9649 139.389 79.0099ZM131.484 76.5349C131.484 77.0449 131.889 77.3899 132.414 77.3899H138.849C139.374 77.3899 139.779 77.0449 139.779 76.5349C139.779 76.0249 139.374 75.6949 138.849 75.6949H132.414C131.889 75.6949 131.484 76.0249 131.484 76.5349ZM133.869 79.0099V80.2999H137.424V79.0099H133.869ZM131.829 82.9249H139.419C140.904 82.9249 141.894 84.0649 141.894 85.3699C141.894 86.7049 140.904 87.8299 139.419 87.8299H131.829C130.344 87.8299 129.354 86.7049 129.354 85.3699C129.354 84.0649 130.344 82.9249 131.829 82.9249ZM132.294 86.1949H138.909C139.464 86.1949 139.869 85.8349 139.869 85.3399C139.869 84.8749 139.464 84.5149 138.909 84.5149H132.294C131.754 84.5149 131.364 84.8749 131.364 85.3399C131.364 85.8349 131.754 86.1949 132.294 86.1949Z" fill="#D6DFE4"/>
<path d="M127.059 87.785H124.929V74H127.059V87.785ZM118.269 87.455C115.974 87.455 114.204 86 114.204 83.855V77.765C114.204 75.62 115.974 74.165 118.269 74.165C120.564 74.165 122.334 75.62 122.334 77.765V83.855C122.334 86 120.564 87.455 118.269 87.455ZM118.284 85.685C119.469 85.685 120.294 84.965 120.294 83.96V77.66C120.294 76.685 119.469 75.935 118.284 75.935C117.099 75.935 116.274 76.685 116.274 77.66V83.96C116.274 84.965 117.099 85.685 118.284 85.685Z" fill="#D6DFE4"/>
<path d="M107.247 79.3101H95.0821V76.0701H105.087V75.4701H95.0821V74.1201H107.172V77.3151H97.1671V77.9601H107.247V79.3101ZM107.967 81.6201H94.2871V80.0601H107.967V81.6201ZM107.397 87.7851H95.0821V84.4101H105.087V83.7501H95.0821V82.3851H107.172V85.7001H97.1671V86.3901H107.397V87.7851Z" fill="#D6DFE4"/>
<path d="M79.7971 82.8649V81.0349C82.4521 80.9899 84.9571 79.2799 85.0471 77.3299V76.8499H79.9471V75.0349H85.0621V73.6699H87.1921V75.0349H92.3071V76.8499H87.1921V77.3299C87.2971 79.2799 89.8021 80.9899 92.4571 81.0349V82.8649C89.3821 82.8049 87.0121 81.3349 86.1271 79.6399C85.2421 81.3499 82.8721 82.8049 79.7971 82.8649ZM92.9671 87.4549H79.2871V85.5499H92.9671V87.4549Z" fill="#FFA776"/>
<path d="M74.7121 84.23H72.8371V78.935H71.1121V77.21H72.8371V74H74.7121V84.23ZM77.7271 84.23H75.8371V74H77.7271V84.23ZM71.0971 75.95H64.7071V74.285H71.0971V75.95ZM71.7721 82.1L64.7071 82.55V76.985H70.4221V78.62H66.6271V80.75L71.7721 80.435V82.1ZM77.9521 87.785H65.3971V83.36H67.5121V86.045H77.9521V87.785Z" fill="#FFA776"/>
<path d="M56.3521 78.6951V81.0651H62.9671V82.7151H49.2871V81.0651H54.2521V78.6951H50.2171V77.0751H59.9971L60.0871 75.7851H50.0671V74.1201H62.2471L61.8421 80.3751H59.7721L59.8921 78.6951H56.3521ZM50.0821 83.5551H52.1671V86.1501H62.3221V87.7851H50.0821V83.5551Z" fill="#FFA776"/>
<path d="M39.675 87.785H37.8V74H39.675V79.475H41.34V74H43.23V87.785H41.34V81.32H39.675V87.785ZM30.06 87.38V85.445C33.555 84.32 34.53 80.66 34.53 76.4H30.135V74.555H36.48V75.92C36.48 83.315 33.9 86.42 30.06 87.38Z" fill="#FFA776"/>
<path d="M25.575 75.7851H15.57V74.1201H27.75L27.375 79.1301H25.32L25.575 75.7851ZM28.47 81.5301H14.79V79.8351H19.755V77.2251H21.855V79.8351H28.47V81.5301ZM15.36 85.2201C15.36 83.8101 16.35 82.6251 17.835 82.6251H25.41C26.895 82.6251 27.9 83.8101 27.9 85.2201C27.9 86.6301 26.895 87.8301 25.41 87.8301H17.835C16.35 87.8301 15.36 86.6301 15.36 85.2201ZM18.315 86.1351H24.915C25.47 86.1351 25.875 85.7301 25.875 85.1901C25.875 84.6501 25.47 84.2601 24.915 84.2601H18.315C17.775 84.2601 17.385 84.6501 17.385 85.1901C17.385 85.7301 17.775 86.1351 18.315 86.1351Z" fill="#FFA776"/>
<path d="M13.005 87.785H10.875V74H13.005V87.785ZM6.21 86.57L0.270004 87.23V74.555H8.265V87.23H6.21V86.57ZM2.34 76.34V85.19L6.21 84.77V76.34H2.34Z" fill="#FFA776"/>
<path d="M124.389 55.0099V56.2999H127.464V57.9649H113.784V56.2999H116.904V55.0099C115.509 54.9799 114.429 53.9299 114.429 52.5349C114.429 51.1249 115.539 50.0449 116.949 50.0449H124.299C125.679 50.0449 126.819 51.1249 126.819 52.5349C126.819 53.9149 125.724 54.9649 124.389 55.0099ZM116.484 52.5349C116.484 53.0449 116.889 53.3899 117.414 53.3899H123.849C124.374 53.3899 124.779 53.0449 124.779 52.5349C124.779 52.0249 124.374 51.6949 123.849 51.6949H117.414C116.889 51.6949 116.484 52.0249 116.484 52.5349ZM118.869 55.0099V56.2999H122.424V55.0099H118.869ZM116.829 58.9249H124.419C125.904 58.9249 126.894 60.0649 126.894 61.3699C126.894 62.7049 125.904 63.8299 124.419 63.8299H116.829C115.344 63.8299 114.354 62.7049 114.354 61.3699C114.354 60.0649 115.344 58.9249 116.829 58.9249ZM117.294 62.1949H123.909C124.464 62.1949 124.869 61.8349 124.869 61.3399C124.869 60.8749 124.464 60.5149 123.909 60.5149H117.294C116.754 60.5149 116.364 60.8749 116.364 61.3399C116.364 61.8349 116.754 62.1949 117.294 62.1949Z" fill="#D6DFE4"/>
<path d="M109.914 55.01H106.674V53.345H109.914V50H112.014V60.23H109.914V55.01ZM98.9941 58.505V56.645C100.749 56.39 102.354 55.235 102.354 53.03V52.1H99.1441V50.33H107.544V52.1H104.334V53.075C104.349 55.235 105.939 56.39 107.694 56.645V58.505C105.744 58.19 103.989 57.35 103.344 55.745C102.684 57.35 100.929 58.19 98.9941 58.505ZM112.269 63.785H100.014V59.18H102.129V62.045H112.269V63.785Z" fill="#D6DFE4"/>
<path d="M92.5171 57.38H90.3871V50H92.5171V57.38ZM79.4971 57.155V55.205C81.4021 54.62 82.9021 53.105 82.9021 51.125V50.135H85.0171V51.125C85.0171 53.105 86.5321 54.62 88.4221 55.205V57.155C86.4571 56.66 84.6571 55.505 83.9521 53.99C83.2621 55.505 81.4471 56.66 79.4971 57.155ZM90.4021 63.35L80.4571 63.785V57.89H82.5571V59.09H90.4021V57.89H92.5171V63.785H90.4021V63.35ZM82.5571 60.68V62.045L90.4021 61.745V60.68H82.5571Z" fill="#D6DFE4"/>
<path d="M75.4621 55.55V50H77.5621V63.785H75.4621V57.395H72.3721V63.23H70.3321V62.585L64.7671 63.23V50.465H66.8221V54.155H70.3321V50.465H72.3721V55.55H75.4621ZM66.8221 61.19L70.3321 60.8V55.925H66.8221V61.19Z" fill="#D6DFE4"/>
<path d="M57.8071 54.65H55.9471V57.155H49.7071V50.285H55.9471V52.865H57.8071V50H59.6821V57.68H57.8071V54.65ZM60.8371 57.68V50H62.7271V57.68H60.8371ZM51.5971 55.445H54.0871V51.995H51.5971V55.445ZM60.6721 63.365L50.3371 63.785V58.265H62.7271V63.785H60.6721V63.365ZM60.6721 59.915H52.3921V62.015L60.6721 61.715V59.915Z" fill="#D6DFE4"/>
<path d="M43.02 63.785H40.89V50H43.02V63.785ZM34.785 58.67C32.49 58.67 30.615 57.515 30.615 55.16V53.63C30.615 51.26 32.49 50.075 34.785 50.075C37.065 50.075 38.955 51.26 38.955 53.63V55.16C38.955 57.515 37.065 58.67 34.785 58.67ZM34.785 56.93C35.985 56.93 36.93 56.3 36.93 55.235V53.54C36.93 52.46 35.985 51.8 34.785 51.8C33.6 51.8 32.655 52.46 32.655 53.54V55.235C32.655 56.3 33.6 56.93 34.785 56.93ZM40.26 62.615L29.91 63.275V61.43L40.26 60.785V62.615Z" fill="#D6DFE4"/>
<path d="M27.27 63.785H25.17V50H27.27V55.385H29.37V57.29H27.27V63.785ZM15.135 63.38V61.43C18.99 60.47 21 57.62 20.985 52.4H15.21V50.555H23.025V52.1C23.025 58.835 20.13 62.465 15.135 63.38Z" fill="#D6DFE4"/>
<path d="M12.57 58.19H10.47V50H12.57V52.955H14.37V54.77H12.57V58.19ZM0 57.695V55.835C1.77 55.61 3.375 54.545 3.405 52.415V52.1H0.15V50.33H8.67V52.1H5.4V52.415C5.43 54.545 7.05 55.61 8.82 55.835V57.695C6.855 57.485 5.055 56.63 4.41 55.025C3.735 56.63 1.95 57.485 0 57.695ZM12.57 63.935H10.425V60.5H0.75V58.76H12.57V63.935Z" fill="#D6DFE4"/>
<path fill-rule="evenodd" clip-rule="evenodd" d="M163.707 15.1213L155.414 23.4142L154 22L162.293 13.7071L154 5.41421L155.414 4L163.707 12.2929L172 4L173.414 5.41421L165.121 13.7071L173.414 22L172 23.4142L163.707 15.1213Z" fill="white"/>
<rect x="110.5" y="20.5" width="17" height="17" fill="white" stroke="#DDDDDD"/>
<path d="M114 29.5L117 32.5L124 25.5" stroke="#333333"/>
<rect x="71" y="91" width="26" height="26" rx="13" fill="#317669"/>
<rect x="71" y="91" width="26" height="26" rx="13" stroke="white" stroke-width="2"/>
<path fill-rule="evenodd" clip-rule="evenodd" d="M83.9998 96.8007L80.9758 100.977L76.7998 104.001L80.7297 106.847L86.8456 100.731L83.9998 96.8007ZM87.2699 101.155L81.154 107.271L83.9998 111.201L87.0238 107.025L91.1998 104.001L87.2699 101.155Z" fill="#D6DFE4"/>
<path d="M275.118 157.29H273.138V155.31H275.118V157.29Z" fill="#D6DFE4"/>
<path d="M270.348 157.785H268.248V144H270.348V149.385H272.568V151.29H270.348V157.785ZM266.943 156.51L258.588 157.23V144.555H266.268V146.34H260.688V155.22L266.943 154.68V156.51Z" fill="#D6DFE4"/>
<path d="M256.143 157.785H254.013V144H256.143V157.785ZM252.468 156.51L243.708 157.23V144.48H245.853V155.145L252.468 154.605V156.51Z" fill="#D6DFE4"/>
<path d="M241.278 151.89H239.148V144H241.278V151.89ZM237.498 151.245L228.468 151.665V147.12H234.288V145.86H228.468V144.285H236.343V148.62H230.523V150L237.498 149.67V151.245ZM239.163 157.35L229.098 157.785V152.445H231.198V153.54H239.163V152.445H241.278V157.785H239.163V157.35ZM231.198 154.995V156.195L239.163 155.88V154.995H231.198Z" fill="#D6DFE4"/>
<path d="M226.023 152.115H213.783V144.3H225.873V146.16H215.898V150.255H226.023V152.115ZM226.668 157.455H212.988V155.55H226.668V157.455Z" fill="#D6DFE4"/>
<path d="M205.023 147.555H198.198V145.83H200.643V143.82H202.593V145.83H205.023V147.555ZM208.023 157.785H206.148V144H208.023V149.475H209.538V144H211.428V157.785H209.538V151.32H208.023V157.785ZM198.408 154.515V151.23C198.408 149.46 199.848 148.305 201.618 148.305C203.388 148.305 204.828 149.46 204.828 151.23V154.515C204.828 156.285 203.388 157.455 201.618 157.455C199.848 157.455 198.408 156.285 198.408 154.515ZM201.618 155.745C202.368 155.745 202.983 155.25 202.983 154.41V151.35C202.983 150.495 202.368 150 201.618 150C200.883 150 200.253 150.495 200.253 151.35V154.41C200.253 155.25 200.883 155.745 201.618 155.745Z" fill="#D6DFE4"/>
<path d="M191.451 149.31H179.286V146.07H189.291V145.47H179.286V144.12H191.376V147.315H181.371V147.96H191.451V149.31ZM192.171 151.62H178.491V150.06H192.171V151.62ZM191.601 157.785H179.286V154.41H189.291V153.75H179.286V152.385H191.376V155.7H181.371V156.39H191.601V157.785Z" fill="#D6DFE4"/>
<path d="M141.714 157.785H139.614V144H141.714V149.385H143.574V151.29H141.714V157.785ZM129.129 157.2V154.935C130.614 154.23 132.654 152.31 132.669 148.41V146.475H129.429V144.615H137.934V146.475H134.709V148.41C134.724 152.31 136.764 154.23 138.249 154.935V157.2C136.434 156.54 134.469 154.89 133.689 152.64C132.894 154.89 130.944 156.54 129.129 157.2Z" fill="#FFA776"/>
<path d="M121.854 149.04V150.63H127.674V152.295H113.994V150.63H119.799V149.04H114.789V144.12H126.879V145.695H116.904V147.45H126.954V149.04H121.854ZM124.794 155.01H114.759V153.375H126.879V157.935H124.794V155.01Z" fill="#FFA776"/>
<path d="M111.249 150.465H109.164L109.689 146.085H99.7141V144.3H111.954L111.249 150.465ZM106.854 157.935H104.724V153.03H98.9941V151.2H112.674V153.03H106.854V157.935Z" fill="#FFA776"/>
<path d="M92.7271 151.38H90.5971V144H92.7271V151.38ZM79.7071 151.155V149.205C81.6121 148.62 83.1121 147.105 83.1121 145.125V144.135H85.2271V145.125C85.2271 147.105 86.7421 148.62 88.6321 149.205V151.155C86.6671 150.66 84.8671 149.505 84.1621 147.99C83.4721 149.505 81.6571 150.66 79.7071 151.155ZM90.6121 157.35L80.6671 157.785V151.89H82.7671V153.09H90.6121V151.89H92.7271V157.785H90.6121V157.35ZM82.7671 154.68V156.045L90.6121 155.745V154.68H82.7671Z" fill="#FFA776"/>
<path d="M75.6721 149.55V144H77.7721V157.785H75.6721V151.395H72.5821V157.23H70.5421V156.585L64.9771 157.23V144.465H67.0321V148.155H70.5421V144.465H72.5821V149.55H75.6721ZM67.0321 155.19L70.5421 154.8V149.925H67.0321V155.19Z" fill="#FFA776"/>
<path d="M58.0171 148.65H56.1571V151.155H49.9171V144.285H56.1571V146.865H58.0171V144H59.8921V151.68H58.0171V148.65ZM61.0471 151.68V144H62.9371V151.68H61.0471ZM51.8071 149.445H54.2971V145.995H51.8071V149.445ZM60.8821 157.365L50.5471 157.785V152.265H62.9371V157.785H60.8821V157.365ZM60.8821 153.915H52.6021V156.015L60.8821 155.715V153.915Z" fill="#FFA776"/>
<path d="M39.045 146.67H30.15V145.035H33.525V143.67H35.67V145.035H39.045V146.67ZM42.78 154.2H40.68V144H42.78V147.75H44.58V149.595H42.78V154.2ZM30.42 149.925C30.42 148.41 31.53 147.33 32.805 147.33H36.405C37.68 147.33 38.79 148.41 38.79 149.925C38.79 151.455 37.68 152.52 36.405 152.52H32.805C31.53 152.52 30.42 151.455 30.42 149.925ZM33.465 150.915H35.76C36.495 150.915 36.9 150.465 36.9 149.925C36.9 149.37 36.495 148.935 35.76 148.935H33.465C32.73 148.935 32.325 149.37 32.325 149.925C32.325 150.465 32.73 150.915 33.465 150.915ZM43.08 157.785H31.11V153.33H33.225V156.045H43.08V157.785Z" fill="#D6DFE4"/>
<path d="M26.19 149.715H23.145V150.87H15.48V144.21H17.505V145.785H21.12V144.21H23.145V145.365H26.19V144H28.29V151.32H26.19V149.715ZM26.19 148.08V146.985H23.145V148.08H26.19ZM17.505 149.25H21.12V147.405H17.505V149.25ZM18.255 155.46V156.33H28.545V157.785H16.11V154.125H26.145V153.3H16.11V151.89H28.29V155.46H18.255Z" fill="#D6DFE4"/>
<path d="M12.885 145.545H0.795V144.12H12.885V145.545ZM13.035 149.97H0.795V146.13H12.81V147.525H2.91V148.515H13.035V149.97ZM13.68 152.58H0V150.93H13.68V152.58ZM10.83 155.145H0.72V153.57H12.885V157.935H10.83V155.145Z" fill="#D6DFE4"/>
<path d="M189.663 125.55H191.508V120H193.383V133.785H191.508V127.38H189.663V130.455C189.663 132.225 188.283 133.455 186.543 133.455C184.788 133.455 183.408 132.225 183.408 130.455V123.165C183.408 121.395 184.788 120.165 186.543 120.165C188.283 120.165 189.663 121.395 189.663 123.165V125.55ZM194.538 133.785V120H196.428V133.785H194.538ZM187.818 130.425V123.195C187.818 122.445 187.263 121.935 186.558 121.935C185.853 121.935 185.298 122.445 185.298 123.195V130.425C185.298 131.19 185.853 131.685 186.558 131.685C187.263 131.685 187.818 131.19 187.818 130.425Z" fill="#D6DFE4"/>
<path d="M181.218 127.05H179.088V120H181.218V127.05ZM177.258 121.845H168.348V120.285H177.258V121.845ZM177.408 126.555H168.198V124.995H169.863L169.473 122.265H171.438L171.783 124.995H173.763L174.123 122.265H176.088L175.683 124.995H177.408V126.555ZM181.473 133.785H169.098V129.96H179.103V129.075H169.098V127.605H181.218V131.325H171.198V132.27H181.473V133.785Z" fill="#D6DFE4"/>
<path d="M166.023 128.31H153.783V123.435H163.773V121.98H153.783V120.3H165.873V125.07H155.883V126.6H166.023V128.31ZM166.668 133.455H152.988V131.625H158.763V128.97H160.893V131.625H166.668V133.455Z" fill="#D6DFE4"/>
<path d="M151.023 122.025H138.633V120.3H151.023V122.025ZM151.173 128.385H138.483V126.675H140.958L140.583 122.46H142.593L142.953 126.675H146.688L147.048 122.46H149.058L148.668 126.675H151.173V128.385ZM151.668 133.455H137.988V131.595H151.668V133.455Z" fill="#D6DFE4"/>
<path d="M131.706 133.785H129.576V120H131.706V133.785ZM118.626 133.2V130.815C120.231 129.795 122.256 127.815 122.256 123.93V120.36H124.356V123.93C124.356 127.815 126.366 129.795 127.971 130.815V133.2C126.081 132.24 124.086 130.455 123.306 128.25C122.511 130.455 120.516 132.24 118.626 133.2Z" fill="#D6DFE4"/>
<path d="M99.7891 120.12H111.879V121.545H99.7891V120.12ZM106.854 125.895V127.05H112.674V128.655H98.9941V127.05H104.799V125.895H99.7891V122.1H111.804V123.495H101.904V124.455H112.029V125.895H106.854ZM101.904 129.435H109.749C111.174 129.435 112.074 130.455 112.074 131.64C112.074 132.825 111.174 133.83 109.749 133.83H101.904C100.479 133.83 99.5941 132.825 99.5941 131.64C99.5941 130.455 100.479 129.435 101.904 129.435ZM102.429 132.3H109.194C109.689 132.3 110.049 132 110.049 131.61C110.049 131.235 109.689 130.95 109.194 130.95H102.429C101.949 130.95 101.589 131.235 101.589 131.61C101.589 132 101.949 132.3 102.429 132.3Z" fill="#D6DFE4"/>
<path d="M84.4441 127.74V125.94C87.4741 125.73 89.7691 123.57 89.7691 121.635V120.15H91.8991V121.635C91.8991 123.57 94.2541 125.73 97.2241 125.94V127.74C94.2541 127.635 91.7041 126.075 90.8341 124.26C89.9641 126.075 87.4141 127.635 84.4441 127.74ZM97.6741 133.455H83.9941V131.61H89.7841V127.995H91.8841V131.61H97.6741V133.455Z" fill="#D6DFE4"/>
<path d="M75.2071 121.725H65.2771V120.12H77.4571L77.0071 124.47H74.9071L75.2071 121.725ZM78.1771 126.69H64.4971V125.07H78.1771V126.69ZM77.6071 133.785H65.2921V129.99H75.2521V129.09H65.2921V127.68H77.3821V131.355H67.4221V132.3H77.6071V133.785Z" fill="#D6DFE4"/>
<path d="M59.3971 128.385H57.5221V120H59.3971V123.045H61.0471V120H62.9371V128.985H61.0471V124.83H59.3971V128.385ZM56.5921 127.155L49.9771 127.995V120.285H56.2171V121.995H51.9271V126.03L56.5921 125.43V127.155ZM50.3971 133.785V132.03C53.8171 132.03 55.7671 130.755 55.7671 129.315V128.67H57.8971V129.315C57.8971 130.755 59.8471 132.03 63.2671 132.03V133.785C59.7121 133.785 57.7021 132.645 56.8321 131.385C55.9621 132.645 53.9221 133.785 50.3971 133.785Z" fill="#D6DFE4"/>
<path d="M43.23 133.785H41.1V120H43.23V133.785ZM34.995 128.67C32.7 128.67 30.825 127.515 30.825 125.16V123.63C30.825 121.26 32.7 120.075 34.995 120.075C37.275 120.075 39.165 121.26 39.165 123.63V125.16C39.165 127.515 37.275 128.67 34.995 128.67ZM34.995 126.93C36.195 126.93 37.14 126.3 37.14 125.235V123.54C37.14 122.46 36.195 121.8 34.995 121.8C33.81 121.8 32.865 122.46 32.865 123.54V125.235C32.865 126.3 33.81 126.93 34.995 126.93ZM40.47 132.615L30.12 133.275V131.43L40.47 130.785V132.615Z" fill="#D6DFE4"/>
<path d="M27.48 133.785H25.38V120H27.48V125.385H29.58V127.29H27.48V133.785ZM15.345 133.38V131.43C19.2 130.47 21.21 127.62 21.195 122.4H15.42V120.555H23.235V122.1C23.235 128.835 20.34 132.465 15.345 133.38Z" fill="#D6DFE4"/>
<path d="M12.78 128.19H10.68V120H12.78V122.955H14.58V124.77H12.78V128.19ZM0.210007 127.695V125.835C1.98001 125.61 3.58501 124.545 3.61501 122.415V122.1H0.360007V120.33H8.88001V122.1H5.61001V122.415C5.64001 124.545 7.26001 125.61 9.03001 125.835V127.695C7.06501 127.485 5.26501 126.63 4.62001 125.025C3.94501 126.63 2.16001 127.485 0.210007 127.695ZM12.78 133.935H10.635V130.5H0.960007V128.76H12.78V133.935Z" fill="#D6DFE4"/>
<path d="M176.875 157.83H174.745V144.045H176.875V157.83ZM163.795 157.245V154.98C165.31 154.275 167.44 152.355 167.455 148.455V146.52H164.095V144.66H172.84V146.52H169.495V148.455C169.51 152.355 171.64 154.275 173.155 154.98V157.245C171.295 156.585 169.285 154.905 168.475 152.685C167.665 154.905 165.64 156.585 163.795 157.245Z" fill="#FFA776"/>
<path d="M158.695 157.83H156.82V144.045H158.695V149.52H160.21V144.045H162.1V157.83H160.21V151.365H158.695V157.83ZM153.64 156.645L149.08 157.275V144.57H151V148.38H153.64V144.57H155.53V157.275H153.64V156.645ZM151 150.09V155.265L153.64 154.92V150.09H151Z" fill="#FFA776"/>
<path fill-rule="evenodd" clip-rule="evenodd" d="M180 12.0005L180 12.0005L186.38 7.38049L191 1.00049L195.404 7.08219L186.082 16.4045L180 12.0005ZM186.596 16.9187L191 23.0005L195.62 16.6205L202 12.0005L195.918 7.59646L186.596 16.9187Z" fill="#317669"/>
<path d="M354.496 20.2401H351.656V1.86011H354.496V20.2401ZM337.236 19.7001V17.1001C342.536 15.8401 345.756 12.0201 345.736 5.06011H337.336V2.60011H348.456V4.66011C348.456 13.6401 343.996 18.4601 337.236 19.7001Z" fill="#317669"/>
<path d="M328.156 6.60012H317.156V4.22012H321.256V1.62012H324.056V4.22012H328.156V6.60012ZM333.836 20.2401H331.036V1.86012H333.836V9.12012H336.316V11.6601H333.836V20.2401ZM322.656 19.8001C319.716 19.8001 317.436 18.0601 317.436 15.2001V12.2601C317.436 9.42012 319.716 7.68012 322.656 7.68012C325.596 7.68012 327.876 9.42012 327.876 12.2601V15.2001C327.876 18.0601 325.596 19.8001 322.656 19.8001ZM322.656 17.5401C324.056 17.5401 325.216 16.6801 325.216 15.2401V12.2601C325.216 10.8201 324.056 9.96012 322.656 9.96012C321.276 9.96012 320.116 10.8201 320.116 12.2601V15.2401C320.116 16.6801 321.276 17.5401 322.656 17.5401Z" fill="#317669"/>
<path d="M308.136 11.3601H304.816V8.98011H308.136V1.86011H310.636V20.2401H308.136V11.3601ZM314.796 20.2401H312.276V1.86011H314.796V20.2401ZM297.076 19.4601V16.4601C299.016 14.9601 300.396 12.2601 300.396 7.70011V5.04011H297.276V2.68011H306.036V5.04011H302.936V7.70011C302.936 12.2601 304.316 14.9601 306.276 16.4601V19.4601C304.296 18.4001 302.416 16.3801 301.676 13.8401C300.916 16.3801 299.056 18.4001 297.076 19.4601Z" fill="#317669"/>
<path d="M291.636 5.68011H287.496C286.576 10.1001 282.276 11.0201 277.336 11.0801V8.80011C282.316 8.74011 284.996 7.70011 284.996 4.50011H277.436V2.24011H287.676V3.52011H291.636V1.86011H294.436V11.1801H291.636V9.56011H286.956V7.38011H291.636V5.68011ZM281.216 16.9401V18.2401H294.776V20.2401H278.356V15.1401H291.576V13.9001H278.356V11.9401H294.436V16.9401H281.216Z" fill="#317669"/>
<path d="M268.52 11.7001H265.68V1.86011H268.52V11.7001ZM251.16 11.4001V8.80011C253.7 8.02011 255.7 6.00011 255.7 3.36011V2.04011H258.52V3.36011C258.52 6.00011 260.54 8.02011 263.06 8.80011V11.4001C260.44 10.7401 258.04 9.20011 257.1 7.18011C256.18 9.20011 253.76 10.7401 251.16 11.4001ZM265.7 19.6601L252.44 20.2401V12.3801H255.24V13.9801H265.7V12.3801H268.52V20.2401H265.7V19.6601ZM255.24 16.1001V17.9201L265.7 17.5201V16.1001H255.24Z" fill="#317669"/>
<path d="M245.78 9.26011V1.86011H248.58V20.2401H245.78V11.7201H241.66V19.5001H238.94V18.6401L231.52 19.5001V2.48011H234.26V7.40011H238.94V2.48011H241.66V9.26011H245.78ZM234.26 16.7801L238.94 16.2601V9.76011H234.26V16.7801Z" fill="#317669"/>
<path d="M222.24 8.06011H219.76V11.4001H211.44V2.24011H219.76V5.68011H222.24V1.86011H224.74V12.1001H222.24V8.06011ZM226.28 12.1001V1.86011H228.8V12.1001H226.28ZM213.96 9.12011H217.28V4.52011H213.96V9.12011ZM226.06 19.6801L212.28 20.2401V12.8801H228.8V20.2401H226.06V19.6801ZM226.06 15.0801H215.02V17.8801L226.06 17.4801V15.0801Z" fill="#317669"/>
<path d="M115.925 9.63232C115.925 10.1121 115.841 10.5669 115.672 10.9966C115.504 11.4263 115.28 11.7987 115.001 12.1138C114.689 12.4611 114.351 12.7189 113.986 12.8872C113.624 13.0555 113.252 13.1396 112.869 13.1396C112.561 13.1396 112.308 13.1021 112.111 13.0269C111.914 12.9517 111.739 12.8586 111.585 12.7476L111.273 14.1548C111.252 14.2443 111.234 14.3285 111.22 14.4072C111.209 14.486 111.204 14.5487 111.204 14.5952C111.204 14.6919 111.238 14.7689 111.306 14.8262C111.377 14.8835 111.458 14.9246 111.547 14.9497C111.637 14.9784 111.737 14.9998 111.848 15.0142C111.959 15.0285 112.059 15.0392 112.149 15.0464L112.074 15.3848H109.114L109.189 15.0464C109.304 15.0392 109.411 15.0303 109.512 15.0195C109.612 15.0088 109.707 14.9909 109.796 14.9658C109.907 14.9336 109.995 14.8727 110.06 14.7832C110.128 14.6973 110.176 14.5898 110.205 14.4609L111.327 9.51953C111.356 9.38346 111.383 9.2474 111.408 9.11133C111.433 8.97168 111.445 8.85173 111.445 8.75146C111.445 8.55094 111.413 8.41667 111.349 8.34863C111.288 8.2806 111.153 8.24658 110.946 8.24658C110.867 8.24658 110.767 8.2627 110.645 8.29492C110.523 8.32357 110.428 8.34684 110.36 8.36475L110.441 8.021C110.713 7.89925 110.958 7.80615 111.177 7.7417C111.395 7.67367 111.581 7.63965 111.735 7.63965C111.986 7.63965 112.176 7.7041 112.305 7.83301C112.434 7.95833 112.514 8.13379 112.546 8.35938H112.589C112.833 8.13379 113.092 7.94759 113.368 7.80078C113.647 7.65397 113.925 7.58057 114.201 7.58057C114.745 7.58057 115.167 7.76676 115.468 8.13916C115.773 8.50798 115.925 9.0057 115.925 9.63232ZM114.249 11.8506C114.432 11.557 114.571 11.224 114.668 10.8516C114.768 10.4756 114.818 10.0781 114.818 9.65918C114.818 9.4694 114.8 9.27962 114.765 9.08984C114.732 8.89648 114.679 8.73714 114.604 8.61182C114.525 8.47217 114.417 8.36475 114.281 8.28955C114.145 8.21077 113.966 8.17139 113.744 8.17139C113.579 8.17139 113.397 8.22152 113.196 8.32178C112.999 8.42204 112.758 8.61003 112.471 8.88574L111.784 11.9312C111.809 12.1353 111.918 12.3268 112.111 12.5059C112.308 12.6813 112.545 12.769 112.82 12.769C113.103 12.769 113.368 12.6867 113.615 12.522C113.862 12.3573 114.074 12.1335 114.249 11.8506Z" fill="white"/>
<path d="M109.625 12.4146L109.544 12.7583C109.215 12.8908 108.951 12.9821 108.754 13.0322C108.557 13.0859 108.389 13.1128 108.25 13.1128C107.963 13.1128 107.748 13.0394 107.605 12.8926C107.462 12.7422 107.39 12.5578 107.39 12.3394C107.39 12.257 107.397 12.1711 107.412 12.0815C107.426 11.992 107.449 11.8792 107.481 11.7432L108.051 9.46045C108.079 9.33512 108.106 9.20085 108.131 9.05762C108.16 8.91439 108.174 8.79264 108.174 8.69238C108.174 8.49186 108.14 8.35938 108.072 8.29492C108.008 8.22689 107.874 8.19287 107.669 8.19287C107.591 8.19287 107.485 8.2054 107.353 8.23047C107.224 8.25553 107.125 8.27702 107.057 8.29492L107.138 7.95117C107.417 7.82585 107.668 7.73275 107.89 7.67188C108.112 7.611 108.287 7.58057 108.416 7.58057C108.71 7.58057 108.923 7.65039 109.055 7.79004C109.188 7.92969 109.254 8.11768 109.254 8.354C109.254 8.41846 109.247 8.50618 109.232 8.61719C109.218 8.72819 109.197 8.83919 109.168 8.9502L108.593 11.2329C108.557 11.3726 108.525 11.5104 108.497 11.6465C108.472 11.779 108.459 11.8882 108.459 11.9741C108.459 12.1782 108.504 12.3179 108.593 12.3931C108.686 12.4683 108.835 12.5059 109.039 12.5059C109.107 12.5059 109.204 12.4969 109.329 12.479C109.458 12.4611 109.556 12.4396 109.625 12.4146ZM110.006 5.55029C110.006 5.75439 109.94 5.93343 109.807 6.0874C109.675 6.23779 109.51 6.31299 109.313 6.31299C109.13 6.31299 108.973 6.24137 108.84 6.09814C108.708 5.95133 108.642 5.78483 108.642 5.59863C108.642 5.40169 108.708 5.22982 108.84 5.08301C108.973 4.9362 109.13 4.86279 109.313 4.86279C109.517 4.86279 109.684 4.93262 109.812 5.07227C109.941 5.20833 110.006 5.36768 110.006 5.55029Z" fill="white"/>
<path d="M106.354 12.377L106.273 12.7207C105.951 12.8496 105.7 12.9427 105.521 13C105.342 13.0609 105.161 13.0913 104.979 13.0913C104.692 13.0913 104.477 13.0179 104.334 12.8711C104.191 12.7207 104.119 12.5363 104.119 12.3179C104.119 12.2391 104.126 12.1532 104.141 12.0601C104.155 11.9634 104.178 11.8506 104.21 11.7217L104.737 9.71826C104.776 9.56429 104.807 9.42464 104.828 9.29932C104.853 9.17399 104.866 9.07373 104.866 8.99854C104.866 8.75863 104.808 8.56885 104.694 8.4292C104.579 8.28955 104.409 8.21973 104.184 8.21973C103.954 8.21973 103.706 8.29313 103.437 8.43994C103.172 8.58675 102.92 8.79264 102.68 9.05762L101.772 13H100.773L102.368 6.0874C102.386 6.00505 102.4 5.93522 102.411 5.87793C102.425 5.82064 102.433 5.75977 102.433 5.69531C102.433 5.56641 102.411 5.46794 102.368 5.3999C102.325 5.32829 102.264 5.27458 102.186 5.23877C102.118 5.20654 102.024 5.18506 101.906 5.17432C101.788 5.16357 101.67 5.15104 101.552 5.13672L101.627 4.80908L103.62 4.68555L103.673 4.76611L102.814 8.48291H102.835C103.204 8.18571 103.534 7.96191 103.824 7.81152C104.114 7.65755 104.443 7.58057 104.812 7.58057C105.156 7.58057 105.424 7.68083 105.618 7.88135C105.811 8.07829 105.908 8.33789 105.908 8.66016C105.908 8.72461 105.897 8.83919 105.875 9.00391C105.858 9.16862 105.827 9.33154 105.784 9.49268L105.333 11.2168C105.304 11.3314 105.274 11.4639 105.242 11.6143C105.209 11.7611 105.193 11.8757 105.193 11.958C105.193 12.1621 105.238 12.3018 105.328 12.377C105.417 12.4486 105.564 12.4844 105.768 12.4844C105.836 12.4844 105.933 12.4736 106.058 12.4521C106.187 12.4271 106.285 12.402 106.354 12.377Z" fill="white"/>
<path d="M97.6738 13.1558C97.1439 13.1558 96.7017 13.0627 96.3472 12.8765C95.9963 12.6867 95.8208 12.4396 95.8208 12.1353C95.8208 11.992 95.8727 11.8577 95.9766 11.7324C96.0804 11.6071 96.2075 11.5444 96.3579 11.5444C96.5011 11.5444 96.6157 11.5785 96.7017 11.6465C96.7912 11.7109 96.861 11.7879 96.9111 11.8774C96.9648 11.9705 97.0114 12.0815 97.0508 12.2104C97.0938 12.3394 97.1296 12.445 97.1582 12.5273C97.2119 12.5882 97.2853 12.6455 97.3784 12.6992C97.4751 12.7493 97.613 12.7744 97.792 12.7744C98.1787 12.7744 98.4705 12.6777 98.6675 12.4844C98.868 12.291 98.9683 12.0296 98.9683 11.7002C98.9683 11.4567 98.8752 11.2633 98.689 11.1201C98.5028 10.9733 98.2253 10.839 97.8564 10.7173C97.724 10.6743 97.5682 10.6099 97.3892 10.5239C97.2101 10.4344 97.0669 10.3395 96.9595 10.2393C96.8306 10.1247 96.7267 9.98861 96.6479 9.83105C96.5692 9.6735 96.5298 9.4873 96.5298 9.27246C96.5298 8.81413 96.7339 8.41846 97.1421 8.08545C97.5539 7.74886 98.0588 7.58057 98.6567 7.58057C98.7964 7.58057 98.9468 7.58773 99.1079 7.60205C99.269 7.61637 99.4463 7.65576 99.6396 7.72021C99.8079 7.77751 99.9512 7.86344 100.069 7.97803C100.188 8.08903 100.247 8.23405 100.247 8.41309C100.247 8.5599 100.196 8.69417 100.096 8.81592C99.9995 8.93408 99.8706 8.99316 99.7095 8.99316C99.577 8.99316 99.4678 8.96452 99.3818 8.90723C99.2959 8.84993 99.2243 8.77295 99.167 8.67627C99.1097 8.57959 99.0632 8.47575 99.0273 8.36475C98.9915 8.25374 98.9521 8.14453 98.9092 8.03711C98.8411 8.00846 98.7803 7.98877 98.7266 7.97803C98.6729 7.96729 98.6012 7.96191 98.5117 7.96191C98.1608 7.96191 97.894 8.0568 97.7114 8.24658C97.5324 8.43278 97.4429 8.65479 97.4429 8.9126C97.4429 9.16325 97.5234 9.35303 97.6846 9.48193C97.8493 9.60726 98.1196 9.73796 98.4956 9.87402C98.9826 10.0495 99.3353 10.25 99.5537 10.4756C99.7757 10.7012 99.8867 10.9805 99.8867 11.3135C99.8867 11.8577 99.6772 12.3018 99.2583 12.6455C98.8394 12.9857 98.3112 13.1558 97.6738 13.1558Z" fill="white"/>
<path d="M95.7725 8.45605C95.7725 8.55632 95.7581 8.66732 95.7295 8.78906C95.7008 8.90723 95.6597 9.0057 95.606 9.08447C95.5415 9.18115 95.4699 9.25635 95.3911 9.31006C95.3159 9.36019 95.2067 9.38525 95.0635 9.38525C94.8701 9.38525 94.7251 9.33691 94.6284 9.24023C94.5317 9.14355 94.4834 9.03613 94.4834 8.91797C94.4834 8.80697 94.5103 8.68343 94.564 8.54736C94.6177 8.40771 94.6732 8.26986 94.7305 8.13379C94.6875 8.13379 94.6159 8.14632 94.5156 8.17139C94.4189 8.19287 94.3008 8.23763 94.1611 8.30566C94.0215 8.3737 93.8621 8.47575 93.6831 8.61182C93.5076 8.74788 93.3197 8.92871 93.1191 9.1543L92.2544 13H91.2554L92.0396 9.51953C92.0575 9.43359 92.0825 9.30469 92.1147 9.13281C92.1506 8.96094 92.1685 8.83382 92.1685 8.75146C92.1685 8.55094 92.1344 8.41667 92.0664 8.34863C91.9984 8.2806 91.8623 8.24658 91.6582 8.24658C91.5794 8.24658 91.4792 8.2609 91.3574 8.28955C91.2357 8.31462 91.1408 8.3361 91.0728 8.354L91.1533 8.01025C91.4326 7.88493 91.6797 7.79183 91.8945 7.73096C92.1094 7.67008 92.2938 7.63965 92.4478 7.63965C92.7342 7.63965 92.9383 7.71842 93.0601 7.87598C93.1818 8.02995 93.2427 8.2627 93.2427 8.57422H93.2749C93.701 8.2054 94.0233 7.94759 94.2417 7.80078C94.4637 7.65397 94.6947 7.58057 94.9346 7.58057C95.0492 7.58057 95.1602 7.59489 95.2676 7.62354C95.375 7.65218 95.4663 7.70052 95.5415 7.76855C95.6203 7.84375 95.6776 7.93148 95.7134 8.03174C95.7528 8.12842 95.7725 8.26986 95.7725 8.45605Z" fill="white"/>
<path d="M90.4336 8.69775C90.4336 9.07731 90.3136 9.40316 90.0737 9.67529C89.8374 9.94743 89.4919 10.1641 89.0371 10.3252C88.7041 10.4469 88.3675 10.5454 88.0273 10.6206C87.6872 10.6958 87.3112 10.7585 86.8994 10.8086C86.8994 11.3743 87.0033 11.8076 87.2109 12.1084C87.4222 12.4056 87.7301 12.5542 88.1348 12.5542C88.4928 12.5542 88.8079 12.4647 89.0801 12.2856C89.3558 12.1066 89.6261 11.8398 89.8911 11.4854L90.1973 11.7109C89.9108 12.1478 89.5527 12.4969 89.123 12.7583C88.6934 13.0197 88.2476 13.1504 87.7856 13.1504C87.1519 13.1504 86.6667 12.9731 86.3301 12.6187C85.9971 12.2642 85.8306 11.7611 85.8306 11.1094C85.8306 10.6582 85.9004 10.2285 86.04 9.82031C86.1833 9.40853 86.391 9.03255 86.6631 8.69238C86.9281 8.35938 87.2521 8.09082 87.6353 7.88672C88.022 7.68262 88.4481 7.58057 88.9136 7.58057C89.4292 7.58057 89.8105 7.6862 90.0576 7.89746C90.3083 8.10514 90.4336 8.37191 90.4336 8.69775ZM89.4453 8.56348C89.4453 8.42383 89.4256 8.31462 89.3862 8.23584C89.3468 8.15348 89.2967 8.09261 89.2358 8.05322C89.1714 8.01025 89.1034 7.9834 89.0317 7.97266C88.9601 7.96191 88.8867 7.95654 88.8115 7.95654C88.3818 7.95654 87.9844 8.19287 87.6191 8.66553C87.2575 9.13818 87.0283 9.72721 86.9316 10.4326C87.1823 10.3968 87.4652 10.3467 87.7803 10.2822C88.0954 10.2142 88.3568 10.1265 88.5645 10.019C88.8617 9.86507 89.0819 9.66813 89.2251 9.42822C89.3719 9.18473 89.4453 8.89648 89.4453 8.56348Z" fill="white"/>
<path d="M85.084 9.63232C85.084 10.1086 84.998 10.5651 84.8262 11.002C84.6543 11.4352 84.4269 11.8094 84.144 12.1245C83.854 12.4468 83.5264 12.701 83.1611 12.8872C82.7959 13.0698 82.4092 13.1611 82.001 13.1611C81.693 13.1611 81.4209 13.1343 81.1846 13.0806C80.9518 13.0304 80.7531 12.9606 80.5884 12.8711C80.4201 12.778 80.2804 12.6742 80.1694 12.5596C80.0584 12.4414 79.9582 12.3107 79.8687 12.1675L81.2544 6.0874C81.2723 6.00505 81.2866 5.93522 81.2974 5.87793C81.3117 5.81706 81.3188 5.75618 81.3188 5.69531C81.3188 5.56641 81.2974 5.46794 81.2544 5.3999C81.2114 5.32829 81.1506 5.27458 81.0718 5.23877C80.9966 5.20654 80.9017 5.18506 80.7871 5.17432C80.6725 5.16357 80.5562 5.15104 80.438 5.13672L80.5132 4.80908L82.5059 4.68555L82.5596 4.76611L81.7432 8.33789H81.7646C82.0869 8.05143 82.3698 7.85449 82.6133 7.74707C82.8604 7.63607 83.1003 7.58057 83.333 7.58057C83.8773 7.58057 84.3052 7.76676 84.6167 8.13916C84.9282 8.50798 85.084 9.0057 85.084 9.63232ZM83.9775 9.65918C83.9775 9.4694 83.9596 9.27962 83.9238 9.08984C83.8916 8.89648 83.8361 8.73535 83.7573 8.60645C83.675 8.47038 83.5622 8.36296 83.4189 8.28418C83.2757 8.2054 83.0985 8.16602 82.8872 8.16602C82.7619 8.16602 82.6437 8.1875 82.5327 8.23047C82.4217 8.27344 82.3071 8.33073 82.189 8.40234C82.0851 8.4668 81.9831 8.54557 81.8828 8.63867C81.7861 8.72819 81.6966 8.80876 81.6143 8.88037L80.8999 12.0654C80.9106 12.137 80.9429 12.2158 80.9966 12.3018C81.0503 12.3877 81.1183 12.4629 81.2007 12.5273C81.3009 12.6097 81.4137 12.6724 81.5391 12.7153C81.6644 12.7583 81.8022 12.7798 81.9526 12.7798C82.2355 12.7798 82.5005 12.6974 82.7476 12.5327C82.9982 12.3644 83.2131 12.1388 83.3921 11.856C83.589 11.548 83.7358 11.2043 83.8325 10.8247C83.9292 10.4451 83.9775 10.0566 83.9775 9.65918Z" fill="white"/>
<path d="M79.0522 12.3931L78.9717 12.7368C78.6423 12.8693 78.3791 12.9606 78.1821 13.0107C77.9852 13.0645 77.8169 13.0913 77.6772 13.0913C77.3908 13.0913 77.1759 13.0179 77.0327 12.8711C76.8895 12.7207 76.8179 12.5363 76.8179 12.3179C76.8179 12.2391 76.825 12.1532 76.8394 12.0601C76.8537 11.9634 76.877 11.8506 76.9092 11.7217L77.4355 9.71826C77.4749 9.56429 77.5054 9.42464 77.5269 9.29932C77.5519 9.17399 77.5645 9.07373 77.5645 8.99854C77.5645 8.75863 77.5125 8.56885 77.4087 8.4292C77.3049 8.28955 77.1401 8.21973 76.9146 8.21973C76.6746 8.21973 76.4383 8.27702 76.2056 8.3916C75.9764 8.5026 75.7168 8.71208 75.4268 9.02002L74.4922 13H73.4932L74.3364 9.41211C74.3543 9.33333 74.3704 9.25098 74.3848 9.16504C74.4027 9.07552 74.4116 9.00928 74.4116 8.96631C74.4116 8.73356 74.3525 8.55094 74.2344 8.41846C74.1198 8.28597 73.9497 8.21973 73.7241 8.21973C73.52 8.21973 73.2944 8.27165 73.0474 8.37549C72.8003 8.47575 72.5138 8.70312 72.188 9.05762L71.2803 13H70.2812L71.0815 9.51953C71.1102 9.39421 71.137 9.25993 71.1621 9.1167C71.1908 8.97347 71.2051 8.85173 71.2051 8.75146C71.2051 8.54378 71.1711 8.40771 71.103 8.34326C71.035 8.27523 70.9025 8.24121 70.7056 8.24121C70.6268 8.24121 70.5247 8.25553 70.3994 8.28418C70.2777 8.31283 70.1828 8.3361 70.1147 8.354L70.1953 8.01025C70.4746 7.88493 70.7217 7.79183 70.9365 7.73096C71.1514 7.67008 71.3358 7.63965 71.4897 7.63965C71.7762 7.63965 71.9785 7.71842 72.0967 7.87598C72.2184 8.02995 72.2829 8.24121 72.29 8.50977H72.3223C72.7448 8.17676 73.0921 7.93864 73.3643 7.79541C73.6364 7.65218 73.9604 7.58057 74.3364 7.58057C74.6551 7.58057 74.9129 7.67367 75.1099 7.85986C75.3104 8.04248 75.4232 8.27344 75.4482 8.55273H75.4697C75.8529 8.23405 76.193 7.99235 76.4902 7.82764C76.791 7.66292 77.1401 7.58057 77.5376 7.58057C77.8813 7.58057 78.1445 7.68083 78.3271 7.88135C78.5133 8.07829 78.6064 8.33789 78.6064 8.66016C78.6064 8.72461 78.5957 8.83919 78.5742 9.00391C78.5563 9.16862 78.5259 9.33154 78.4829 9.49268L78.0317 11.2168C77.9995 11.3314 77.9691 11.4639 77.9404 11.6143C77.9118 11.7611 77.8975 11.8757 77.8975 11.958C77.8975 12.1621 77.9404 12.3018 78.0264 12.377C78.1123 12.4486 78.2573 12.4844 78.4614 12.4844C78.5295 12.4844 78.6279 12.4754 78.7568 12.4575C78.8857 12.4396 78.9842 12.4181 79.0522 12.3931Z" fill="white"/>
<path d="M69.4756 8.69775C69.4756 9.07731 69.3556 9.40316 69.1157 9.67529C68.8794 9.94743 68.5339 10.1641 68.0791 10.3252C67.7461 10.4469 67.4095 10.5454 67.0693 10.6206C66.7292 10.6958 66.3532 10.7585 65.9414 10.8086C65.9414 11.3743 66.0452 11.8076 66.2529 12.1084C66.4642 12.4056 66.7721 12.5542 67.1768 12.5542C67.5348 12.5542 67.8499 12.4647 68.1221 12.2856C68.3978 12.1066 68.6681 11.8398 68.9331 11.4854L69.2393 11.7109C68.9528 12.1478 68.5947 12.4969 68.165 12.7583C67.7354 13.0197 67.2896 13.1504 66.8276 13.1504C66.1938 13.1504 65.7087 12.9731 65.3721 12.6187C65.0391 12.2642 64.8726 11.7611 64.8726 11.1094C64.8726 10.6582 64.9424 10.2285 65.082 9.82031C65.2253 9.40853 65.4329 9.03255 65.7051 8.69238C65.9701 8.35938 66.2941 8.09082 66.6772 7.88672C67.064 7.68262 67.4901 7.58057 67.9556 7.58057C68.4712 7.58057 68.8525 7.6862 69.0996 7.89746C69.3503 8.10514 69.4756 8.37191 69.4756 8.69775ZM68.4873 8.56348C68.4873 8.42383 68.4676 8.31462 68.4282 8.23584C68.3888 8.15348 68.3387 8.09261 68.2778 8.05322C68.2134 8.01025 68.1453 7.9834 68.0737 7.97266C68.0021 7.96191 67.9287 7.95654 67.8535 7.95654C67.4238 7.95654 67.0264 8.19287 66.6611 8.66553C66.2995 9.13818 66.0703 9.72721 65.9736 10.4326C66.2243 10.3968 66.5072 10.3467 66.8223 10.2822C67.1374 10.2142 67.3988 10.1265 67.6064 10.019C67.9036 9.86507 68.1239 9.66813 68.2671 9.42822C68.4139 9.18473 68.4873 8.89648 68.4873 8.56348Z" fill="white"/>
<path d="M64.1851 12.3931L64.1045 12.7368C63.7751 12.8693 63.5119 12.9606 63.3149 13.0107C63.118 13.0645 62.9497 13.0913 62.8101 13.0913C62.5236 13.0913 62.3088 13.0179 62.1655 12.8711C62.0223 12.7207 61.9507 12.5363 61.9507 12.3179C61.9507 12.2391 61.9578 12.1532 61.9722 12.0601C61.9865 11.9634 62.0098 11.8506 62.042 11.7217L62.5684 9.71826C62.6077 9.56429 62.6382 9.42464 62.6597 9.29932C62.6847 9.17399 62.6973 9.07373 62.6973 8.99854C62.6973 8.75863 62.6453 8.56885 62.5415 8.4292C62.4377 8.28955 62.2729 8.21973 62.0474 8.21973C61.8075 8.21973 61.5711 8.27702 61.3384 8.3916C61.1092 8.5026 60.8496 8.71208 60.5596 9.02002L59.625 13H58.626L59.4692 9.41211C59.4871 9.33333 59.5033 9.25098 59.5176 9.16504C59.5355 9.07552 59.5444 9.00928 59.5444 8.96631C59.5444 8.73356 59.4854 8.55094 59.3672 8.41846C59.2526 8.28597 59.0825 8.21973 58.8569 8.21973C58.6528 8.21973 58.4272 8.27165 58.1802 8.37549C57.9331 8.47575 57.6466 8.70312 57.3208 9.05762L56.4131 13H55.4141L56.2144 9.51953C56.243 9.39421 56.2699 9.25993 56.2949 9.1167C56.3236 8.97347 56.3379 8.85173 56.3379 8.75146C56.3379 8.54378 56.3039 8.40771 56.2358 8.34326C56.1678 8.27523 56.0353 8.24121 55.8384 8.24121C55.7596 8.24121 55.6576 8.25553 55.5322 8.28418C55.4105 8.31283 55.3156 8.3361 55.2476 8.354L55.3281 8.01025C55.6074 7.88493 55.8545 7.79183 56.0693 7.73096C56.2842 7.67008 56.4686 7.63965 56.6226 7.63965C56.909 7.63965 57.1113 7.71842 57.2295 7.87598C57.3512 8.02995 57.4157 8.24121 57.4229 8.50977H57.4551C57.8776 8.17676 58.2249 7.93864 58.4971 7.79541C58.7692 7.65218 59.0933 7.58057 59.4692 7.58057C59.7879 7.58057 60.0457 7.67367 60.2427 7.85986C60.4432 8.04248 60.556 8.27344 60.5811 8.55273H60.6025C60.9857 8.23405 61.3258 7.99235 61.623 7.82764C61.9238 7.66292 62.2729 7.58057 62.6704 7.58057C63.0142 7.58057 63.2773 7.68083 63.46 7.88135C63.6462 8.07829 63.7393 8.33789 63.7393 8.66016C63.7393 8.72461 63.7285 8.83919 63.707 9.00391C63.6891 9.16862 63.6587 9.33154 63.6157 9.49268L63.1646 11.2168C63.1323 11.3314 63.1019 11.4639 63.0732 11.6143C63.0446 11.7611 63.0303 11.8757 63.0303 11.958C63.0303 12.1621 63.0732 12.3018 63.1592 12.377C63.2451 12.4486 63.3901 12.4844 63.5942 12.4844C63.6623 12.4844 63.7607 12.4754 63.8896 12.4575C64.0186 12.4396 64.117 12.4181 64.1851 12.3931Z" fill="white"/>
<path d="M51.8584 12.377L51.7778 12.7207C51.4556 12.8496 51.2049 12.9427 51.0259 13C50.8468 13.0609 50.666 13.0913 50.4834 13.0913C50.1969 13.0913 49.9821 13.0179 49.8389 12.8711C49.6956 12.7207 49.624 12.5363 49.624 12.3179C49.624 12.2391 49.6312 12.1532 49.6455 12.0601C49.6598 11.9634 49.6831 11.8506 49.7153 11.7217L50.2417 9.71826C50.2811 9.56429 50.3115 9.42464 50.333 9.29932C50.3581 9.17399 50.3706 9.07373 50.3706 8.99854C50.3706 8.75863 50.3133 8.56885 50.1987 8.4292C50.0841 8.28955 49.9141 8.21973 49.6885 8.21973C49.4593 8.21973 49.2104 8.29313 48.9419 8.43994C48.6769 8.58675 48.4245 8.79264 48.1846 9.05762L47.2769 13H46.2778L47.873 6.0874C47.891 6.00505 47.9053 5.93522 47.916 5.87793C47.9303 5.82064 47.9375 5.75977 47.9375 5.69531C47.9375 5.56641 47.916 5.46794 47.873 5.3999C47.8301 5.32829 47.7692 5.27458 47.6904 5.23877C47.6224 5.20654 47.5293 5.18506 47.4111 5.17432C47.293 5.16357 47.1748 5.15104 47.0566 5.13672L47.1318 4.80908L49.1245 4.68555L49.1782 4.76611L48.3188 8.48291H48.3403C48.7091 8.18571 49.0386 7.96191 49.3286 7.81152C49.6187 7.65755 49.9481 7.58057 50.3169 7.58057C50.6606 7.58057 50.9292 7.68083 51.1226 7.88135C51.3159 8.07829 51.4126 8.33789 51.4126 8.66016C51.4126 8.72461 51.4019 8.83919 51.3804 9.00391C51.3625 9.16862 51.332 9.33154 51.2891 9.49268L50.8379 11.2168C50.8092 11.3314 50.7788 11.4639 50.7466 11.6143C50.7144 11.7611 50.6982 11.8757 50.6982 11.958C50.6982 12.1621 50.743 12.3018 50.8325 12.377C50.922 12.4486 51.0688 12.4844 51.2729 12.4844C51.341 12.4844 51.4377 12.4736 51.563 12.4521C51.6919 12.4271 51.7904 12.402 51.8584 12.377Z" fill="white"/>
<path d="M43.3774 13.1504C42.7508 13.1504 42.2549 12.9678 41.8896 12.6025C41.528 12.2373 41.3472 11.7181 41.3472 11.0449C41.3472 10.5973 41.4152 10.1694 41.5513 9.76123C41.6909 9.34945 41.8843 8.98421 42.1313 8.66553C42.3784 8.34684 42.6899 8.08724 43.0659 7.88672C43.4455 7.68262 43.8662 7.58057 44.3281 7.58057C44.8402 7.58057 45.2287 7.68978 45.4937 7.9082C45.7622 8.12305 45.8965 8.39518 45.8965 8.72461C45.8965 8.97168 45.8374 9.18831 45.7192 9.37451C45.6047 9.56071 45.431 9.65381 45.1982 9.65381C45.0049 9.65381 44.8599 9.60547 44.7632 9.50879C44.6665 9.41211 44.6182 9.30469 44.6182 9.18652C44.6182 9.07194 44.6576 8.91618 44.7363 8.71924C44.8151 8.51872 44.8778 8.35758 44.9243 8.23584C44.8849 8.13916 44.7972 8.06934 44.6611 8.02637C44.5251 7.97982 44.3836 7.95654 44.2368 7.95654C43.7498 7.95654 43.3291 8.24121 42.9746 8.81055C42.6237 9.3763 42.4482 10.071 42.4482 10.8945C42.4482 11.403 42.561 11.8076 42.7866 12.1084C43.0158 12.4056 43.3237 12.5542 43.7104 12.5542C44.0578 12.5542 44.3657 12.4611 44.6343 12.2749C44.9064 12.0887 45.166 11.8255 45.4131 11.4854L45.7192 11.7109C45.4722 12.1012 45.1356 12.4396 44.7095 12.7261C44.2869 13.009 43.8429 13.1504 43.3774 13.1504Z" fill="white"/>
<path d="M40.6704 12.377L40.5898 12.7207C40.2676 12.8496 40.0169 12.9427 39.8379 13C39.6589 13.0609 39.478 13.0913 39.2954 13.0913C39.009 13.0913 38.7941 13.0179 38.6509 12.8711C38.5076 12.7207 38.436 12.5363 38.436 12.3179C38.436 12.2391 38.4432 12.1532 38.4575 12.0601C38.4718 11.9634 38.4951 11.8506 38.5273 11.7217L39.0537 9.71826C39.0931 9.56429 39.1235 9.42464 39.145 9.29932C39.1701 9.17399 39.1826 9.07373 39.1826 8.99854C39.1826 8.75863 39.1253 8.56885 39.0107 8.4292C38.8962 8.28955 38.7261 8.21973 38.5005 8.21973C38.2821 8.21973 38.0368 8.29134 37.7646 8.43457C37.4925 8.5778 37.2365 8.78548 36.9966 9.05762L36.0889 13H35.0898L35.8901 9.51953C35.908 9.43359 35.9331 9.31006 35.9653 9.14893C36.0011 8.98421 36.019 8.85173 36.019 8.75146C36.019 8.55094 35.985 8.41667 35.917 8.34863C35.849 8.2806 35.7129 8.24658 35.5088 8.24658C35.43 8.24658 35.3298 8.2609 35.208 8.28955C35.0863 8.31462 34.9914 8.3361 34.9233 8.354L35.0039 8.01025C35.2832 7.88493 35.5303 7.79183 35.7451 7.73096C35.96 7.67008 36.1444 7.63965 36.2983 7.63965C36.5812 7.63965 36.7835 7.71663 36.9053 7.87061C37.027 8.02458 37.0915 8.23763 37.0986 8.50977H37.1309C37.5247 8.19466 37.8649 7.96191 38.1514 7.81152C38.4378 7.65755 38.7637 7.58057 39.1289 7.58057C39.4727 7.58057 39.7412 7.68083 39.9346 7.88135C40.1279 8.07829 40.2246 8.33789 40.2246 8.66016C40.2246 8.72461 40.2139 8.83919 40.1924 9.00391C40.1745 9.16862 40.144 9.33154 40.1011 9.49268L39.6499 11.2168C39.6177 11.3314 39.5854 11.4639 39.5532 11.6143C39.5246 11.7611 39.5103 11.8757 39.5103 11.958C39.5103 12.1621 39.555 12.3018 39.6445 12.377C39.734 12.4486 39.8809 12.4844 40.085 12.4844C40.153 12.4844 40.2497 12.4736 40.375 12.4521C40.5039 12.4271 40.6024 12.402 40.6704 12.377Z" fill="white"/>
<path d="M31.9692 12.248H31.937C31.7723 12.3805 31.6147 12.5023 31.4644 12.6133C31.314 12.7243 31.1654 12.8174 31.0186 12.8926C30.8467 12.9785 30.6909 13.0394 30.5513 13.0752C30.4116 13.1146 30.229 13.1343 30.0034 13.1343C29.6597 13.1343 29.3929 13.0358 29.2031 12.8389C29.0133 12.6383 28.9185 12.377 28.9185 12.0547C28.9185 11.9688 28.9256 11.8667 28.9399 11.7485C28.9543 11.6304 28.9883 11.4549 29.042 11.2222L29.4609 9.51953C29.4967 9.36198 29.5254 9.22233 29.5469 9.10059C29.5719 8.97884 29.5845 8.86247 29.5845 8.75146C29.5845 8.55094 29.5505 8.41846 29.4824 8.354C29.418 8.28597 29.2837 8.25195 29.0796 8.25195C29.0008 8.25195 28.9006 8.26628 28.7788 8.29492C28.6571 8.32357 28.5622 8.34684 28.4941 8.36475L28.5747 8.021C28.854 7.89567 29.0993 7.80078 29.3105 7.73633C29.5254 7.67188 29.6973 7.63965 29.8262 7.63965C30.1126 7.63965 30.3221 7.70768 30.4546 7.84375C30.5907 7.97624 30.6587 8.16602 30.6587 8.41309C30.6587 8.47754 30.6515 8.56527 30.6372 8.67627C30.6229 8.78727 30.6014 8.89827 30.5728 9.00928L30.0947 10.9966C30.0589 11.147 30.0285 11.2884 30.0034 11.4209C29.9819 11.5498 29.9712 11.6483 29.9712 11.7163C29.9712 11.9562 30.0231 12.146 30.127 12.2856C30.2308 12.4253 30.3955 12.4951 30.6211 12.4951C30.8503 12.4951 31.0848 12.436 31.3247 12.3179C31.5682 12.1961 31.8117 12.0135 32.0552 11.77L32.9951 7.72559L33.9297 7.66113L33.9941 7.7417L33.1938 11.2007C33.158 11.3475 33.1258 11.4961 33.0972 11.6465C33.0685 11.7933 33.0542 11.8971 33.0542 11.958C33.0542 12.1621 33.0972 12.3018 33.1831 12.377C33.2726 12.4486 33.4194 12.4844 33.6235 12.4844C33.6916 12.4844 33.7882 12.4736 33.9136 12.4521C34.0389 12.4307 34.1356 12.4074 34.2036 12.3823L34.123 12.7261C33.8258 12.8478 33.577 12.9391 33.3765 13C33.1795 13.0609 32.9969 13.0913 32.8286 13.0913C32.5386 13.0913 32.3219 13.0072 32.1787 12.8389C32.0391 12.6706 31.9692 12.4736 31.9692 12.248Z" fill="white"/>
<path d="M28.2148 8.45605C28.2148 8.55632 28.2005 8.66732 28.1719 8.78906C28.1432 8.90723 28.1021 9.0057 28.0483 9.08447C27.9839 9.18115 27.9123 9.25635 27.8335 9.31006C27.7583 9.36019 27.6491 9.38525 27.5059 9.38525C27.3125 9.38525 27.1675 9.33691 27.0708 9.24023C26.9741 9.14355 26.9258 9.03613 26.9258 8.91797C26.9258 8.80697 26.9526 8.68343 27.0063 8.54736C27.0601 8.40771 27.1156 8.26986 27.1729 8.13379C27.1299 8.13379 27.0583 8.14632 26.958 8.17139C26.8613 8.19287 26.7432 8.23763 26.6035 8.30566C26.4639 8.3737 26.3045 8.47575 26.1255 8.61182C25.95 8.74788 25.762 8.92871 25.5615 9.1543L24.6968 13H23.6978L24.4819 9.51953C24.4998 9.43359 24.5249 9.30469 24.5571 9.13281C24.5929 8.96094 24.6108 8.83382 24.6108 8.75146C24.6108 8.55094 24.5768 8.41667 24.5088 8.34863C24.4408 8.2806 24.3047 8.24658 24.1006 8.24658C24.0218 8.24658 23.9215 8.2609 23.7998 8.28955C23.6781 8.31462 23.5832 8.3361 23.5151 8.354L23.5957 8.01025C23.875 7.88493 24.1221 7.79183 24.3369 7.73096C24.5518 7.67008 24.7362 7.63965 24.8901 7.63965C25.1766 7.63965 25.3807 7.71842 25.5024 7.87598C25.6242 8.02995 25.6851 8.2627 25.6851 8.57422H25.7173C26.1434 8.2054 26.4657 7.94759 26.6841 7.80078C26.9061 7.65397 27.137 7.58057 27.377 7.58057C27.4915 7.58057 27.6025 7.59489 27.71 7.62354C27.8174 7.65218 27.9087 7.70052 27.9839 7.76855C28.0627 7.84375 28.12 7.93148 28.1558 8.03174C28.1951 8.12842 28.2148 8.26986 28.2148 8.45605Z" fill="white"/>
<path d="M22.7148 9.63232C22.7148 10.1086 22.6289 10.5651 22.457 11.002C22.2852 11.4352 22.0578 11.8094 21.7749 12.1245C21.4849 12.4468 21.1572 12.701 20.792 12.8872C20.4268 13.0698 20.04 13.1611 19.6318 13.1611C19.3239 13.1611 19.0518 13.1343 18.8154 13.0806C18.5827 13.0304 18.384 12.9606 18.2192 12.8711C18.0509 12.778 17.9113 12.6742 17.8003 12.5596C17.6893 12.4414 17.589 12.3107 17.4995 12.1675L18.8853 6.0874C18.9032 6.00505 18.9175 5.93522 18.9282 5.87793C18.9425 5.81706 18.9497 5.75618 18.9497 5.69531C18.9497 5.56641 18.9282 5.46794 18.8853 5.3999C18.8423 5.32829 18.7814 5.27458 18.7026 5.23877C18.6274 5.20654 18.5326 5.18506 18.418 5.17432C18.3034 5.16357 18.187 5.15104 18.0688 5.13672L18.144 4.80908L20.1367 4.68555L20.1904 4.76611L19.374 8.33789H19.3955C19.7178 8.05143 20.0007 7.85449 20.2441 7.74707C20.4912 7.63607 20.7311 7.58057 20.9639 7.58057C21.5081 7.58057 21.936 7.76676 22.2476 8.13916C22.5591 8.50798 22.7148 9.0057 22.7148 9.63232ZM21.6084 9.65918C21.6084 9.4694 21.5905 9.27962 21.5547 9.08984C21.5225 8.89648 21.467 8.73535 21.3882 8.60645C21.3058 8.47038 21.193 8.36296 21.0498 8.28418C20.9066 8.2054 20.7293 8.16602 20.5181 8.16602C20.3927 8.16602 20.2746 8.1875 20.1636 8.23047C20.0526 8.27344 19.938 8.33073 19.8198 8.40234C19.716 8.4668 19.6139 8.54557 19.5137 8.63867C19.417 8.72819 19.3275 8.80876 19.2451 8.88037L18.5308 12.0654C18.5415 12.137 18.5737 12.2158 18.6274 12.3018C18.6812 12.3877 18.7492 12.4629 18.8315 12.5273C18.9318 12.6097 19.0446 12.6724 19.1699 12.7153C19.2952 12.7583 19.4331 12.7798 19.5835 12.7798C19.8664 12.7798 20.1313 12.6974 20.3784 12.5327C20.6291 12.3644 20.8439 12.1388 21.0229 11.856C21.2199 11.548 21.3667 11.2043 21.4634 10.8247C21.5601 10.4451 21.6084 10.0566 21.6084 9.65918Z" fill="white"/>
<path fill-rule="evenodd" clip-rule="evenodd" d="M9.5262 6.48448L3.98449 12.0262L6.50001 15.5L9.23001 11.73L13 9L9.5262 6.48448ZM9.01552 5.97379L3.4738 11.5155L1.52588e-05 9L3.77001 6.27L6.50001 2.5L9.01552 5.97379Z" fill="white"/>
</svg>
