<svg width="60" height="60" viewBox="0 0 60 60" fill="none" xmlns="http://www.w3.org/2000/svg">
    <circle cx="30" cy="30" r="29.5" fill="white" stroke="#EEEEEE"/>
    <g clip-path="url(#clip0_2000_17263)">
        <path d="M43.4613 29.9655C43.4613 22.5316 37.4349 16.5051 30.0009 16.5051C22.567 16.5051 16.5405 22.5316 16.5405 29.9655C16.5405 36.2779 20.8866 41.5749 26.7494 43.0297V34.079H23.9739V29.9655H26.7494V28.1931C26.7494 23.6117 28.8229 21.4882 33.3208 21.4882C34.1737 21.4882 35.6452 21.6556 36.2471 21.8225V25.5511C35.9294 25.5177 35.3776 25.501 34.6922 25.501C32.4852 25.501 31.6323 26.3371 31.6323 28.5107V29.9655H36.029L35.2736 34.079H31.6323V43.3274C38.2974 42.5225 43.4619 36.8476 43.4619 29.9655H43.4613Z" fill="#0866FF"/>
        <path d="M35.2736 34.0794L36.029 29.9659H31.6323V28.5111C31.6323 26.3375 32.4852 25.5013 34.6921 25.5013C35.3775 25.5013 35.9294 25.518 36.2471 25.5514V21.8229C35.6451 21.6554 34.1736 21.4885 33.3208 21.4885C28.8229 21.4885 26.7494 23.612 26.7494 28.1934V29.9659H23.9739V34.0794H26.7494V43.03C27.7907 43.2885 28.8799 43.4263 30.0009 43.4263C30.5528 43.4263 31.0971 43.3924 31.6318 43.3278V34.0794H35.2731H35.2736Z" fill="white"/>
    </g>
    <defs>
        <clipPath id="clip0_2000_17263">
            <rect width="26.9208" height="26.9208" fill="white" transform="translate(16.5398 16.505)"/>
        </clipPath>
    </defs>
</svg>