<svg width="60" height="60" viewBox="0 0 60 60" fill="none" xmlns="http://www.w3.org/2000/svg">
    <circle cx="30" cy="30" r="29.5" fill="white" stroke="#EEEEEE"></circle>
    <g clip-path="url(#clip0_2000_17263)">
        <path fill-rule="evenodd" clip-rule="evenodd" d="M30.0961 17.0006C37.8822 17.0006 44.1938 21.9799 44.1938 28.1217C44.1938 34.2635 37.8822 39.2416 30.0961 39.2416C29.2306 39.2416 28.3835 39.1792 27.5619 39.0613L21.8466 42.9139C21.7726 42.9729 21.6848 43.0006 21.5958 43.0006C21.4918 43.0006 21.389 42.9613 21.3104 42.8827C21.2018 42.7741 21.1636 42.6147 21.2133 42.4679L22.5422 37.5117C18.6087 35.538 15.9983 32.0702 15.9983 28.1217C15.9983 21.9799 22.3099 17.0006 30.0961 17.0006ZM27.1413 24.8907C26.6155 24.8907 26.2781 25.2963 26.1383 25.6754L24.1808 30.8523C24.1611 30.9031 24.1195 31.0094 24.1195 31.1481C24.1195 31.4971 24.4107 31.7709 24.7828 31.7709C25.1202 31.7709 25.3259 31.6195 25.4311 31.2925L25.7327 30.3819H28.5511L28.8458 31.3029C28.9498 31.6172 29.1658 31.7709 29.5033 31.7709C29.8407 31.7709 30.118 31.5155 30.118 31.1885C30.118 31.1365 30.1018 31.0048 30.0418 30.843L28.1443 25.6742C27.9675 25.1762 27.6024 24.8907 27.1402 24.8907H27.1413ZM24.3969 24.9508H20.2126C19.8209 24.9508 19.6094 25.2675 19.6094 25.5644C19.6094 25.8464 19.7677 26.1757 20.2126 26.1757H21.6316V31.0649C21.6316 31.4994 21.8905 31.7698 22.3053 31.7698C22.7202 31.7698 22.9802 31.4994 22.9802 31.0649V26.1757H24.398C24.8441 26.1757 25.0024 25.8464 25.0024 25.5644C25.0024 25.2675 24.7909 24.9508 24.398 24.9508H24.3969ZM35.942 24.8907C35.5514 24.8907 35.2672 25.1692 35.2672 25.554V31.1273C35.2672 31.5121 35.5387 31.7709 35.942 31.7709C36.3453 31.7709 36.6157 31.4947 36.6157 31.1273V29.3142L37.0999 28.8208L38.8714 31.2324C39.1314 31.5837 39.2712 31.7397 39.5208 31.7651C39.5554 31.7686 39.5913 31.7698 39.6259 31.7698C39.7704 31.7698 40.2465 31.7316 40.2985 31.2417C40.3343 30.9667 40.1702 30.7529 39.9714 30.4952L38.0509 27.9842L39.6745 26.3491C39.7346 26.2809 39.7889 26.2196 39.8397 26.1653C40.0604 25.9215 40.1714 25.8002 40.1714 25.6141C40.1794 25.2178 39.8524 25.0017 39.5266 24.9936C39.2689 24.9936 39.0967 25.1346 38.9904 25.2397L36.6157 27.7115V25.554C36.6157 25.1577 36.3442 24.8907 35.942 24.8907ZM31.4966 24.8907C31.0806 24.8907 30.8218 25.16 30.8218 25.5933V30.9493C30.8218 31.4162 31.0852 31.6947 31.5266 31.6947H34.04C34.4479 31.6947 34.6767 31.3931 34.6848 31.1065C34.694 30.9378 34.6362 30.7737 34.5265 30.657C34.4109 30.5345 34.2422 30.4698 34.0411 30.4698H32.1714V25.5933C32.1714 25.16 31.9138 24.8907 31.4978 24.8907H31.4966ZM27.0766 25.9088C27.0812 25.8961 27.0986 25.8961 27.1032 25.9088L28.1305 29.0195H26.0505L27.0766 25.9088Z" fill="#3C1E1E"></path>
    </g>
    <defs>
        <clipPath id="clip0_2000_17263">
            <rect width="28.1956" height="26" fill="white" transform="translate(16 17)"></rect>
        </clipPath>
    </defs>
</svg>