<svg class="ico_line_cheer" width="22" height="22" viewBox="0 0 22 22" fill="none" xmlns="http://www.w3.org/2000/svg">
    <g clip-path="url(#clip0_1916_796)">
        <path d="M5.08896 6.2789L5.23756 5.45235C6.18484 5.63809 6.65605 5.84241 6.58175 6.19532C6.50746 6.54823 5.54403 6.45186 4.78249 6.23825C4.02095 6.02465 3.07366 5.60094 3.24083 4.68152C3.408 3.7621 4.64318 3.3999 6.89066 3.3999H19.6201V16.8989C19.6201 16.8989 10.3254 16.8989 4.33729 16.8989" stroke="white" stroke-width="0.894738" stroke-linecap="round" stroke-linejoin="round"/>
        <path d="M3.2416 4.68115L1.3656 14.7855C1.26344 15.3242 1.28202 15.8814 1.41204 16.4107L2.24788 19.7912L4.2446 16.9401C4.56036 16.4943 4.77397 15.9743 4.87612 15.4356L6.58495 6.20423" stroke="white" stroke-width="0.894738" stroke-linecap="round" stroke-linejoin="round"/>
        <path d="M16.7299 9.11911H16.2169L16.6968 7.55972C16.7244 7.46538 16.7079 7.36549 16.6527 7.28779C16.592 7.2101 16.5038 7.16016 16.4045 7.16016H15.5549C15.4225 7.16016 15.3011 7.24895 15.2625 7.37658L14.7218 9.11911H13.8888L13.4143 7.38768C13.3757 7.2545 13.2544 7.16016 13.1164 7.16016H12.2558C12.1179 7.16016 11.9965 7.2545 11.9579 7.38768L11.4835 9.11911H10.6504L10.1098 7.37658C10.0711 7.24895 9.94978 7.16016 9.81738 7.16016H8.96778C8.86848 7.16016 8.78021 7.20455 8.71953 7.28779C8.65884 7.36549 8.64229 7.46538 8.67539 7.55972L9.15536 9.11911H8.64229C8.47127 9.11911 8.33887 9.25785 8.33887 9.42433V10.2401C8.33887 10.4121 8.47679 10.5453 8.64229 10.5453H9.60222L10.3966 13.1147C10.4353 13.2424 10.5566 13.3311 10.689 13.3311L11.5552 13.32C11.6876 13.32 11.8089 13.2257 11.8476 13.0981L12.5703 10.5453H12.7799L13.5026 13.0981C13.5412 13.2257 13.6571 13.32 13.795 13.32L14.6611 13.3311C14.7991 13.3311 14.9149 13.2424 14.9591 13.1147L15.7535 10.5453H16.7134C16.8844 10.5453 17.0168 10.4066 17.0168 10.2401V9.42433C17.0168 9.2523 16.8789 9.11911 16.7134 9.11911H16.7299Z" fill="white"/>
    </g>
    <defs>
        <clipPath id="clip0_1916_796">
            <rect width="22" height="22" fill="white"/>
        </clipPath>
    </defs>
</svg>